<svg xmlns="http://www.w3.org/2000/svg" viewBox="0 0 800 400" width="800" height="400">
  <defs>
    <linearGradient id="bg" x1="0%" y1="0%" x2="100%" y2="100%">
      <stop offset="0%" stop-color="#121212"/>
      <stop offset="50%" stop-color="#0f2d4a"/>
      <stop offset="100%" stop-color="#1a5276"/>
    </linearGradient>
    <linearGradient id="gold" x1="0%" y1="0%" x2="100%" y2="100%">
      <stop offset="0%" stop-color="#B8860B"/>
      <stop offset="100%" stop-color="#F9E29C"/>
    </linearGradient>
  </defs>
  <rect width="800" height="400" fill="url(#bg)"/>
  <g opacity="0.12" stroke="#E8E8E8" stroke-width="1">
    <path d="M0 60 L800 60 M0 340 L800 340"/>
  </g>

  <!-- scales of justice -->
  <g fill="none" stroke="url(#gold)" stroke-width="3" opacity="0.95">
    <line x1="400" y1="80" x2="400" y2="290"/>
    <line x1="270" y1="120" x2="530" y2="120"/>
    <line x1="270" y1="120" x2="230" y2="190"/>
    <line x1="270" y1="120" x2="310" y2="190"/>
    <line x1="530" y1="120" x2="490" y2="190"/>
    <line x1="530" y1="120" x2="570" y2="190"/>
    <path d="M225 190 A45 30 0 0 0 315 190" opacity="0.6"/>
    <path d="M485 190 A45 30 0 0 0 575 190" opacity="0.6"/>
  </g>
  <circle cx="400" cy="80" r="8" fill="url(#gold)"/>
  <rect x="350" y="290" width="100" height="14" rx="4" fill="url(#gold)"/>
  <rect x="330" y="304" width="140" height="10" rx="4" fill="url(#gold)" opacity="0.7"/>

  <!-- document / contract lines -->
  <g transform="translate(560,225)" opacity="0.85">
    <rect x="0" y="0" width="110" height="140" rx="6" fill="#1A1A1A" stroke="#E8E8E8" stroke-width="2"/>
    <line x1="16" y1="28" x2="94" y2="28" stroke="#F9E29C" stroke-width="3"/>
    <line x1="16" y1="52" x2="94" y2="52" stroke="#E8E8E8" stroke-width="2" opacity="0.7"/>
    <line x1="16" y1="72" x2="94" y2="72" stroke="#E8E8E8" stroke-width="2" opacity="0.7"/>
    <line x1="16" y1="92" x2="70" y2="92" stroke="#E8E8E8" stroke-width="2" opacity="0.7"/>
    <path d="M16 114 l10 10 l24 -24" stroke="#F9E29C" stroke-width="3" fill="none"/>
  </g>
</svg>
